<?xml version="1.0" encoding="utf-8"?>
<svg xmlns="http://www.w3.org/2000/svg" width="40" height="40" viewBox="0 0 40 40" fill="none">
<path fill-rule="evenodd" clip-rule="evenodd" d="M29.6247 20.1876C30.1766 20.3201 30.7505 20.3863 31.3245 20.3863C31.8874 20.3863 32.4062 20.3091 32.9029 20.1545C33.3775 20.011 33.7859 19.8124 34.128 19.5364C34.4702 19.2715 34.7351 18.9404 34.9338 18.5651C35.1214 18.1899 35.2207 17.7594 35.2207 17.2848C35.2207 16.7108 35.0552 16.1921 34.713 15.7395C34.3708 15.287 33.7969 14.9338 33.0022 14.6799L31.4349 14.1832C30.8499 13.9956 30.4415 13.7859 30.2207 13.5762C30 13.3665 29.8896 13.1016 29.8896 12.7925C29.8896 12.34 30.0662 12.0199 30.4084 11.8102C30.7505 11.6005 31.2472 11.5011 31.8764 11.5011C32.66 11.5011 33.3664 11.6446 33.9956 11.9316C34.1832 12.0199 34.3267 12.064 34.415 12.064C34.5806 12.064 34.6689 11.9426 34.6689 11.7108V11.1921C34.6689 11.0375 34.6358 10.9161 34.5695 10.8278C34.5033 10.7285 34.3929 10.6402 34.2384 10.5519C34.128 10.4857 33.9735 10.4194 33.7748 10.3532C33.5761 10.287 33.3664 10.2318 33.1457 10.1766C32.9139 10.1325 32.6821 10.0883 32.4282 10.0552C32.1854 10.0221 31.9316 10.011 31.6887 10.011C31.2031 10.011 30.7395 10.0662 30.298 10.1987C29.8565 10.3311 29.4812 10.5188 29.1501 10.7726C28.819 11.0155 28.5541 11.3245 28.3554 11.6777C28.1567 12.0309 28.0574 12.4393 28.0574 12.9029C28.0574 13.4768 28.245 14.0177 28.6093 14.5033C28.9735 15 29.5695 15.3753 30.3753 15.6291L31.9757 16.1258C32.5165 16.3024 32.8918 16.4901 33.0905 16.6998C33.2892 16.9095 33.3885 17.1634 33.3885 17.4724C33.3885 17.925 33.1898 18.2782 32.8146 18.521C32.4393 18.7638 31.8984 18.8852 31.2031 18.8852C30.7616 18.8852 30.3311 18.8411 29.8896 18.7528C29.4592 18.6645 29.0508 18.532 28.6755 18.3665C28.6364 18.3508 28.5987 18.3352 28.5633 18.3205C28.4989 18.2938 28.4423 18.2703 28.3995 18.2561C28.3333 18.234 28.2671 18.223 28.2009 18.223C28.0353 18.223 27.947 18.3333 27.947 18.5651V19.128C27.947 19.2274 27.9691 19.3378 28.0132 19.4371C28.0574 19.5364 28.1788 19.6468 28.3554 19.7461C28.6424 19.9117 29.0728 20.0552 29.6247 20.1876ZM12.8808 18.2009C12.8035 17.9581 12.7594 17.6269 12.7594 17.2186H12.7373V13.6424C12.7373 12.4283 12.4282 11.5232 11.8212 10.9272C11.2031 10.3311 10.2428 10.0331 8.92935 10.0331C8.32228 10.0331 7.74833 10.0993 7.20749 10.2428C6.66665 10.3753 6.20308 10.5408 5.81676 10.7395C5.66224 10.8168 5.5629 10.8941 5.50771 10.9713C5.45253 11.0486 5.43045 11.181 5.43045 11.3576V11.8985C5.43045 12.1303 5.50771 12.2406 5.66224 12.2406C5.70639 12.2406 5.76158 12.2296 5.83884 12.2075C5.9161 12.1854 6.04855 12.1413 6.22515 12.064C6.61147 11.9095 7.00882 11.7881 7.4172 11.6888C7.82559 11.5894 8.22294 11.5453 8.60926 11.5453C9.45915 11.5453 10.0552 11.7108 10.4084 12.053C10.7505 12.3952 10.9271 12.9801 10.9271 13.819V14.6247C10.4856 14.5254 10.0662 14.4371 9.65782 14.3819C9.24943 14.3267 8.86312 14.2936 8.48785 14.2936C7.35098 14.2936 6.45694 14.5806 5.78365 15.1545C5.11036 15.7285 4.77924 16.4901 4.77924 17.4283C4.77924 18.3113 5.05517 19.0177 5.59601 19.5475C6.13685 20.0773 6.87637 20.3422 7.80352 20.3422C9.10595 20.3422 10.1876 19.8344 11.0486 18.819C11.17 19.0729 11.2803 19.2826 11.3907 19.4702C11.5011 19.6468 11.6335 19.8234 11.7881 19.989C11.8984 20.0883 12.0088 20.1435 12.1192 20.1435C12.2075 20.1435 12.3068 20.1104 12.4062 20.0442L13.1015 19.5806C13.245 19.4702 13.3112 19.3598 13.3112 19.2495C13.3112 19.1722 13.2892 19.0839 13.234 18.9956C13.0795 18.7086 12.9691 18.4437 12.8808 18.2009ZM9.415 18.6976C9.01765 18.83 8.64237 18.8963 8.27813 18.8963C7.77041 18.8963 7.38409 18.7638 7.11919 18.4879C6.84325 18.223 6.7108 17.8367 6.7108 17.3179C6.7108 16.766 6.8874 16.3466 7.25164 16.0486C7.61588 15.7506 8.15672 15.6071 8.89623 15.6071C9.2384 15.6071 9.58056 15.6291 9.93376 15.6733C10.287 15.7174 10.6291 15.7837 10.9492 15.8609V16.3245C10.9492 16.6998 10.9051 17.0199 10.8388 17.2848C10.7726 17.5497 10.6402 17.7815 10.4636 17.9912C10.1655 18.3223 9.81235 18.5651 9.415 18.6976ZM17.1413 20.0883C16.9426 20.0883 16.8101 20.0552 16.7218 19.9779C16.6335 19.9117 16.5563 19.7572 16.4901 19.5475L13.8962 11.0155C13.83 10.7947 13.7969 10.6512 13.7969 10.574C13.7969 10.3974 13.8852 10.298 14.0618 10.298H15.1435C15.3532 10.298 15.4967 10.3311 15.5739 10.4084C15.6622 10.4746 15.7285 10.6291 15.7947 10.8389L17.649 18.1457L19.3708 10.8389C19.426 10.6181 19.4923 10.4746 19.5806 10.4084C19.6689 10.3422 19.8234 10.298 20.0221 10.298H20.9051C21.1148 10.298 21.2583 10.3311 21.3466 10.4084C21.4349 10.4746 21.5121 10.6291 21.5563 10.8389L23.3002 18.234L25.2097 10.8389C25.2759 10.6181 25.3532 10.4746 25.4305 10.4084C25.5188 10.3422 25.6622 10.298 25.8609 10.298H26.8874C27.064 10.298 27.1633 10.3863 27.1633 10.574C27.1633 10.6211 27.1553 10.6682 27.1461 10.7222L27.1413 10.7506C27.1302 10.8168 27.1082 10.9051 27.064 11.0265L24.404 19.5585C24.3377 19.7793 24.2605 19.9227 24.1722 19.989C24.0839 20.0552 23.9404 20.0993 23.7527 20.0993H22.8035C22.5938 20.0993 22.4503 20.0662 22.362 19.989C22.2737 19.9117 22.1965 19.7682 22.1523 19.5475L20.4415 12.4283L18.7417 19.5364C18.6865 19.7572 18.6203 19.9007 18.532 19.9779C18.4437 20.0552 18.2892 20.0883 18.0905 20.0883H17.1413Z" fill="#252F3E"/>
<path fill-rule="evenodd" clip-rule="evenodd" d="M30.6733 23.8852C31.8543 23.7417 34.4591 23.4327 34.9227 24.0287C35.3863 24.6137 34.404 27.075 33.9625 28.1678C33.83 28.4989 34.117 28.6313 34.415 28.3775C36.3576 26.7439 36.8653 23.3333 36.468 22.8366C36.0706 22.351 32.66 21.9316 30.585 23.3885C30.2649 23.6203 30.3201 23.9293 30.6733 23.8852ZM19.9669 29.8565C24.5033 29.8565 29.7792 28.4327 33.4106 25.7505C34.0066 25.309 33.4878 24.6358 32.8808 24.9117C28.8079 26.6335 24.3819 27.4724 20.3532 27.4724C14.3819 27.4724 8.60925 25.8278 3.92934 23.1126C3.52095 22.8697 3.2119 23.2892 3.55407 23.5982C7.88078 27.5055 13.6093 29.8565 19.9669 29.8565Z" fill="#FF9900"/>
</svg>