<?xml version="1.0" encoding="utf-8"?>
<svg xmlns="http://www.w3.org/2000/svg" width="39" height="31" viewBox="0 0 39 31" fill="none">
<g clip-path="url(#clip0_9_4)">
<path d="M11.0736 9.35456C8.81775 9.3757 6.62466 10.0916 4.79922 11.4027C2.97378 12.7138 1.60672 14.555 0.888124 16.6702C0.169528 18.7854 0.135107 21.0695 0.789649 23.2049C1.44419 25.3404 2.75516 27.221 4.54029 28.5853L9.32768 23.8632C8.68995 23.5982 8.16677 23.1199 7.73009 22.5893C7.29341 22.0586 6.99547 21.4299 6.86255 20.7584C6.72963 20.0869 6.76582 19.3935 6.96792 18.7391C7.17001 18.0847 7.53181 17.4896 8.0214 17.0063C8.51098 16.523 9.1133 16.1662 9.77522 15.9676C10.4371 15.7689 11.1383 15.7344 11.8169 15.8672C12.4954 16 13.1306 16.2959 13.6662 16.7288C14.2018 17.1618 14.6215 17.7185 14.8882 18.3498L19.7144 13.5655C18.7006 12.2513 17.3929 11.1873 15.8937 10.4567C14.3946 9.72609 12.7448 9.34886 11.0736 9.35456Z" fill="#FBBC05"/>
<path d="M29.3333 3.95605C31.5236 5.87934 33.1535 8.43403 33.9194 11.2303C35.8366 12.5242 37.2835 14.3924 38.0474 16.5602C38.8112 18.728 38.8517 21.0811 38.1628 23.2734C37.474 25.4657 36.0922 27.3815 34.2206 28.7391C32.349 30.0967 30.0864 30.8245 27.7655 30.8155H19.4197L19.4193 24.2285L27.7655 24.228C28.7702 24.0864 29.6896 23.591 30.3546 22.8327C31.0197 22.0744 31.3859 21.1043 31.3859 20.1004C31.3859 19.0966 31.0197 18.1264 30.3546 17.3681C29.6896 16.6099 28.7702 16.1145 27.7655 15.9728V15.1598C27.7821 13.9139 27.5163 12.68 26.9875 11.5491C26.4586 10.4181 25.6565 9.49092 24.6858 8.69665L29.3333 3.95605Z" fill="#4285F4"/>
<path d="M9.32018 23.8604C9.85564 24.1021 10.4846 24.2164 11.0731 24.2079H19.4189V30.8162H11.0731C8.71716 30.823 6.41106 29.9863 4.52765 28.5863L9.32018 23.8604Z" fill="#34A853"/>
<path d="M29.3323 3.95287L24.6879 8.69775C23.04 7.37475 20.9426 6.7261 18.8263 6.88504C16.7097 7.04399 14.7351 7.99869 13.308 9.55298C13.3051 9.5604 13.3021 9.56802 13.299 9.57585C12.5694 9.42685 11.8237 9.3523 11.0738 9.35486C8.88233 9.3754 6.75007 10.0516 4.95657 11.2922C4.95338 11.2597 4.95172 11.2254 4.95172 11.1894C5.61789 8.75634 6.9004 6.53151 8.67799 4.72527C10.4556 2.91904 12.6695 1.59108 15.1105 0.866939C17.5515 0.142803 20.1388 0.0464191 22.6279 0.586899C25.1156 1.12707 27.4231 2.28554 29.3323 3.95287Z" fill="#EA4335"/>
</g>
<defs>
<clipPath id="clip0_9_4">
<rect width="39" height="31" fill="white"/>
</clipPath>
</defs>
</svg>