<?xml version="1.0" encoding="UTF-8" standalone="no"?>
<!DOCTYPE svg PUBLIC "-//W3C//DTD SVG 1.1//EN" "http://www.w3.org/Graphics/SVG/1.1/DTD/svg11.dtd">
<svg width="100%" height="100%" viewBox="0 0 42 32" version="1.1" xmlns="http://www.w3.org/2000/svg" xmlns:xlink="http://www.w3.org/1999/xlink" xml:space="preserve" xmlns:serif="http://www.serif.com/" style="fill-rule:evenodd;clip-rule:evenodd;stroke-linecap:round;stroke-linejoin:round;stroke-miterlimit:1.5;">
    <g transform="matrix(1.40605,0,0,1.3524,-8.3321,-9.23594)">
        <path d="M21.863,11.606L21.925,12.615C22.71,12.74 23.455,13.009 24.112,13.405L24.973,12.73C25.483,13.064 25.936,13.46 26.319,13.904L25.545,14.656C25.999,15.229 26.307,15.879 26.451,16.564L27.607,16.618C27.696,17.169 27.696,17.728 27.607,18.278L26.451,18.333C26.307,19.018 25.999,19.668 25.545,20.241L26.319,20.992C25.936,21.437 25.483,21.832 24.973,22.166L24.112,21.492C23.455,21.887 22.71,22.157 21.925,22.282L21.863,23.291C21.232,23.369 20.592,23.369 19.961,23.291L19.898,22.282C19.114,22.157 18.368,21.887 17.712,21.492L16.851,22.166C16.341,21.832 15.888,21.437 15.505,20.992L16.279,20.241C15.825,19.668 15.516,19.018 15.373,18.333L14.217,18.278C14.127,17.728 14.127,17.169 14.217,16.618L15.373,16.564C15.516,15.879 15.825,15.229 16.279,14.656L15.505,13.904C15.888,13.46 16.341,13.064 16.851,12.73L17.712,13.405C18.368,13.009 19.114,12.74 19.898,12.615L19.961,11.606C20.592,11.528 21.232,11.528 21.863,11.606ZM20.912,14.671C22.668,14.671 24.094,15.916 24.094,17.448C24.094,18.981 22.668,20.225 20.912,20.225C19.156,20.225 17.73,18.981 17.73,17.448C17.73,15.916 19.156,14.671 20.912,14.671Z" style="fill:none;stroke:rgb(255,221,93);stroke-width:0.72px;"/>
    </g>
    <g transform="matrix(0.0525424,0,0,0.0557836,20.9044,16.1019)">
        <g transform="matrix(1,0,0,1,-400,-400)">
            <clipPath id="_clip1">
                <rect x="0" y="0" width="800" height="800"/>
            </clipPath>
            <g clip-path="url(#_clip1)">
                <g transform="matrix(1.72786,0,0,1.72786,0,0)">
                    <g>
                        <g>
                            <path d="M455.5,348L447,348L447,99.5C447,82.131 432.869,68 415.5,68L47.5,68C30.131,68 16,82.131 16,99.5L16,348L7.5,348C3.358,348 0,351.358 0,355.5L0,371.5C0,384.458 10.542,395 23.5,395L439.5,395C452.458,395 463,384.458 463,371.5L463,355.5C463,351.358 459.642,348 455.5,348ZM31,99.5C31,90.402 38.402,83 47.5,83L415.5,83C424.598,83 432,90.402 432,99.5L432,348L31,348L31,99.5ZM448,371.5C448,376.187 444.187,380 439.5,380L23.5,380C18.813,380 15,376.187 15,371.5L15,363L184.025,363C184.014,363.166 184,363.331 184,363.5C184,367.642 187.358,371 191.5,371L271.5,371C275.642,371 279,367.642 279,363.5C279,363.331 278.986,363.166 278.975,363L448,363L448,371.5Z" style="fill:rgb(255,221,93);fill-rule:nonzero;stroke:rgb(255,221,93);stroke-width:0.58px;stroke-linecap:butt;stroke-miterlimit:2;"/>
                            <path d="M407.5,100L55.5,100C51.358,100 48,103.358 48,107.5L48,323.5C48,327.642 51.358,331 55.5,331L407.5,331C411.642,331 415,327.642 415,323.5L415,107.5C415,103.358 411.642,100 407.5,100ZM400,316L63,316L63,115L400,115L400,316Z" style="fill:rgb(255,221,93);fill-rule:nonzero;stroke:rgb(255,221,93);stroke-width:0.58px;stroke-linecap:butt;stroke-linejoin:miter;stroke-miterlimit:1;"/>
                        </g>
                    </g>
                </g>
            </g>
        </g>
    </g>
</svg>
