<?xml version="1.0" encoding="UTF-8" standalone="no"?>
<!DOCTYPE svg PUBLIC "-//W3C//DTD SVG 1.1//EN" "http://www.w3.org/Graphics/SVG/1.1/DTD/svg11.dtd">
<svg width="100%" height="100%" viewBox="0 0 42 42" version="1.1" xmlns="http://www.w3.org/2000/svg" xmlns:xlink="http://www.w3.org/1999/xlink" xml:space="preserve" xmlns:serif="http://www.serif.com/" style="fill-rule:evenodd;clip-rule:evenodd;">
    <path d="M40.638,19.814C40.418,19.723 40.166,19.773 39.998,19.942L38.239,21.706L38.239,9.712C38.239,9.386 37.977,9.123 37.652,9.123L33.141,9.123L34.779,7.48L34.78,7.479L36.357,5.896C36.695,5.557 36.882,5.106 36.882,4.626C36.882,4.147 36.695,3.696 36.357,3.356L34.533,1.526C34.195,1.187 33.745,1 33.267,1C32.789,1 32.339,1.187 32.001,1.526L30.423,3.11L28.515,5.023L24.429,9.123L6.205,9.123L6.205,3.296C6.205,2.97 5.942,2.707 5.618,2.707C3.071,2.707 1,4.785 1,7.339L1,32.356C1,32.399 1.005,32.442 1.014,32.483C1.095,33.566 1.562,34.573 2.344,35.338C3.179,36.155 4.281,36.605 5.447,36.605L23.388,36.605L20.009,39.995C19.841,40.163 19.791,40.416 19.882,40.636C19.973,40.856 20.187,41 20.424,41L40.413,41C40.737,41 41,40.736 41,40.411L41,20.358C41,20.12 40.857,19.905 40.638,19.814ZM32.832,2.359C33.072,2.118 33.463,2.118 33.703,2.359L35.527,4.189C35.767,4.43 35.767,4.822 35.527,5.063L34.364,6.231L31.668,3.526L32.832,2.359ZM30.838,4.359L33.533,7.063L32.456,8.144L29.761,5.44L30.838,4.359ZM18.397,21.76L16.715,22.356L15.595,21.232L16.188,19.544L18.397,21.76ZM35.829,30.171L30.171,35.829C30.108,35.892 30.152,36 30.241,36L36,36L36,30.241C36,30.152 35.892,30.108 35.829,30.171ZM16,18.5L19.5,22L32.5,9L29,5.5L16,18.5Z" style="fill:url(#_Linear1);"/>
    <path d="M36.4,29.255C36.18,29.164 35.928,29.214 35.76,29.383L29.344,35.819C29.176,35.988 29.126,36.241 29.217,36.461C29.308,36.681 29.522,36.825 29.759,36.825L36.175,36.825C36.5,36.825 36.762,36.561 36.762,36.236L36.762,29.799C36.762,29.561 36.619,29.346 36.4,29.255ZM31.176,35.647L35.588,31.221L35.588,35.647L31.176,35.647Z" style="fill:url(#_Linear2);fill-rule:nonzero;stroke:black;stroke-width:0.25px;"/>
    <path d="M40.638,19.814C40.418,19.723 40.166,19.773 39.998,19.942L38.239,21.706L38.239,9.712C38.239,9.386 37.977,9.123 37.652,9.123L33.141,9.123L34.779,7.48C34.779,7.48 34.779,7.479 34.78,7.479L36.357,5.896C36.695,5.557 36.882,5.106 36.882,4.626C36.882,4.147 36.695,3.696 36.357,3.356L34.533,1.526C34.195,1.187 33.745,1 33.267,1C32.789,1 32.339,1.187 32.001,1.526L30.423,3.11L28.515,5.023L24.429,9.123L6.205,9.123L6.205,3.296C6.205,2.97 5.942,2.707 5.618,2.707C3.071,2.707 1,4.785 1,7.339L1,32.356C1,32.399 1.005,32.442 1.014,32.483C1.095,33.566 1.562,34.573 2.344,35.338C3.179,36.155 4.281,36.605 5.447,36.605L23.388,36.605L20.009,39.995C19.841,40.163 19.791,40.416 19.882,40.636C19.973,40.856 20.187,41 20.424,41L40.413,41C40.737,41 41,40.736 41,40.411L41,20.358C41,20.12 40.857,19.905 40.638,19.814ZM32.832,2.359C33.072,2.118 33.463,2.118 33.703,2.359L35.527,4.189C35.767,4.43 35.767,4.822 35.527,5.063L34.364,6.231L31.668,3.526L32.832,2.359ZM30.838,4.359L33.533,7.063L32.456,8.144L29.761,5.44L30.838,4.359ZM39.826,26.976L38.743,26.976C38.419,26.976 38.156,27.24 38.156,27.565C38.156,27.891 38.419,28.154 38.743,28.154L39.826,28.154L39.826,29.929L38.743,29.929C38.419,29.929 38.156,30.193 38.156,30.518C38.156,30.844 38.419,31.107 38.743,31.107L39.826,31.107L39.826,32.882L38.743,32.882C38.419,32.882 38.156,33.146 38.156,33.471C38.156,33.797 38.419,34.06 38.743,34.06L39.826,34.06L39.826,35.835L38.743,35.835C38.419,35.835 38.156,36.099 38.156,36.424C38.156,36.75 38.419,37.013 38.743,37.013L39.826,37.013L39.826,39.822L21.842,39.822L27.772,33.873C28.001,33.643 28.001,33.27 27.772,33.04C27.746,33.014 27.717,32.991 27.688,32.97C27.459,32.813 27.145,32.836 26.942,33.04L24.562,35.427L5.448,35.427C3.667,35.427 2.233,34.032 2.177,32.249C2.18,32.137 2.189,32.026 2.203,31.917C2.203,31.916 2.203,31.915 2.203,31.915C2.21,31.863 2.218,31.811 2.227,31.759C2.228,31.753 2.229,31.747 2.23,31.741C2.238,31.696 2.247,31.65 2.257,31.604C2.26,31.591 2.263,31.579 2.266,31.566C2.275,31.528 2.285,31.489 2.295,31.451C2.3,31.43 2.306,31.41 2.312,31.389C2.321,31.359 2.33,31.33 2.339,31.3C2.349,31.27 2.359,31.241 2.369,31.212C2.376,31.192 2.383,31.171 2.391,31.151C2.405,31.112 2.42,31.074 2.436,31.036C2.44,31.025 2.445,31.014 2.449,31.003C2.469,30.956 2.49,30.91 2.512,30.864C2.513,30.862 2.514,30.86 2.515,30.858C2.974,29.905 3.858,29.194 4.917,28.973C4.92,28.973 4.923,28.972 4.926,28.971C4.975,28.961 5.024,28.953 5.073,28.945C5.082,28.944 5.09,28.942 5.098,28.941C5.143,28.934 5.188,28.929 5.233,28.923C5.246,28.922 5.258,28.92 5.271,28.919C5.314,28.914 5.358,28.912 5.402,28.909C5.416,28.908 5.43,28.906 5.444,28.906C5.501,28.903 5.559,28.901 5.618,28.901C5.942,28.901 6.205,28.638 6.205,28.312L6.205,24.042C6.205,23.716 5.942,23.453 5.618,23.453C5.293,23.453 5.03,23.716 5.03,24.042L5.03,27.76C4.039,27.886 3.119,28.33 2.393,29.041C2.317,29.115 2.245,29.193 2.174,29.272L2.174,7.339C2.174,5.635 3.41,4.215 5.03,3.935L5.03,21.686C5.03,22.011 5.293,22.275 5.618,22.275C5.942,22.275 6.205,22.011 6.205,21.686L6.205,10.301L23.255,10.301L20.009,13.557C19.78,13.787 19.78,14.16 20.009,14.39C20.238,14.62 20.61,14.62 20.839,14.39L25.087,10.128C25.087,10.128 25.087,10.128 25.087,10.128L28.93,6.273L31.626,8.977L31.309,9.294C31.309,9.295 31.309,9.295 31.309,9.295L19.471,21.172L16.775,18.467L19.108,16.126C19.338,15.896 19.338,15.523 19.108,15.293C18.879,15.063 18.507,15.063 18.278,15.293L15.529,18.051C15.515,18.066 15.501,18.081 15.488,18.097C15.484,18.102 15.48,18.108 15.476,18.114C15.468,18.125 15.46,18.136 15.452,18.147C15.448,18.154 15.444,18.161 15.44,18.168C15.433,18.179 15.427,18.19 15.421,18.202C15.418,18.209 15.414,18.216 15.411,18.224C15.405,18.235 15.401,18.247 15.396,18.259C15.395,18.263 15.393,18.267 15.391,18.271L14.247,21.522L13.467,23.738C13.457,23.768 13.45,23.798 13.444,23.828L11.492,23.828C11.167,23.828 10.905,24.092 10.905,24.417C10.905,24.742 11.167,25.006 11.492,25.006L27.751,25.006C28.075,25.006 28.338,24.742 28.338,24.417C28.338,24.092 28.075,23.828 27.751,23.828L16.085,23.828L19.666,22.56C19.669,22.559 19.672,22.557 19.675,22.556C19.689,22.551 19.702,22.545 19.716,22.539C19.721,22.537 19.727,22.534 19.732,22.532C19.746,22.525 19.76,22.517 19.773,22.509C19.778,22.506 19.782,22.503 19.786,22.501C19.801,22.492 19.814,22.482 19.828,22.471C19.831,22.469 19.835,22.466 19.838,22.464C19.854,22.45 19.87,22.436 19.886,22.421L31.967,10.301L37.065,10.301L37.065,22.884L28.667,31.309C28.438,31.539 28.438,31.912 28.667,32.142C28.681,32.156 28.696,32.17 28.712,32.182C28.819,32.27 28.951,32.315 29.082,32.315C29.214,32.315 29.345,32.27 29.453,32.182C29.468,32.17 29.483,32.156 29.497,32.142L29.498,32.142L39.826,21.78L39.826,26.976ZM18.397,21.76L16.715,22.356L15.595,21.232L16.188,19.544L18.397,21.76Z" style="fill:url(#_Linear3);fill-rule:nonzero;stroke:black;stroke-width:0.25px;"/>
    <defs>
        <linearGradient id="_Linear1" x1="0" y1="0" x2="1" y2="0" gradientUnits="userSpaceOnUse" gradientTransform="matrix(34.5333,38.1334,-38.1334,34.5333,3.26667,1)"><stop offset="0" style="stop-color:rgb(255,219,110);stop-opacity:0.15"/><stop offset="0.26" style="stop-color:rgb(255,219,110);stop-opacity:0.15"/><stop offset="1" style="stop-color:rgb(255,188,94);stop-opacity:0.15"/></linearGradient>
        <linearGradient id="_Linear2" x1="0" y1="0" x2="1" y2="0" gradientUnits="userSpaceOnUse" gradientTransform="matrix(6.5761,7.2384,-7.2384,6.5761,29.602,29.21)"><stop offset="0" style="stop-color:rgb(255,219,110);stop-opacity:1"/><stop offset="0.26" style="stop-color:rgb(255,219,110);stop-opacity:1"/><stop offset="1" style="stop-color:rgb(255,188,94);stop-opacity:1"/></linearGradient>
        <linearGradient id="_Linear3" x1="0" y1="0" x2="1" y2="0" gradientUnits="userSpaceOnUse" gradientTransform="matrix(34.5333,38.1334,-38.1334,34.5333,3.26667,1)"><stop offset="0" style="stop-color:rgb(255,219,110);stop-opacity:1"/><stop offset="0.26" style="stop-color:rgb(255,219,110);stop-opacity:1"/><stop offset="1" style="stop-color:rgb(255,188,94);stop-opacity:1"/></linearGradient>
    </defs>
</svg>
