<?xml version="1.0" encoding="utf-8"?>
<svg xmlns="http://www.w3.org/2000/svg" width="40" height="40" viewBox="0 0 40 40" fill="none">
<path d="M11.6666 35.6389C12.1769 36.301 12.9496 36.6663 13.7483 36.6663H26.25C27.0487 36.6663 27.823 36.2723 28.3333 35.633L36.0895 25.6846C36.5997 25.0225 36.7772 24.1778 36.5997 23.3558L33.8265 10.9586C33.649 10.1367 33.1166 9.47456 32.3844 9.10926L21.1584 3.60698C20.8034 3.42433 20.404 3.33301 20.0047 3.33301C19.6053 3.33301 19.206 3.42433 18.851 3.60698L7.62496 9.13209C6.89282 9.49739 6.36036 10.1595 6.18288 10.9814L3.40964 23.3787C3.20997 24.2006 3.40964 25.0453 3.91991 25.7074L11.6666 35.6389Z" fill="#326DE6"/>
<path fill-rule="evenodd" clip-rule="evenodd" d="M31.2884 22.6857C31.5221 22.6911 31.7552 22.7099 31.9867 22.7418C32.0259 22.749 32.0765 22.7616 32.1242 22.7735C32.1507 22.7802 32.1763 22.7866 32.1985 22.7917C32.2993 22.805 32.3962 22.8392 32.4831 22.892C32.5699 22.9448 32.6447 23.0151 32.7027 23.0984C32.7608 23.1817 32.8007 23.2761 32.8201 23.3757C32.8394 23.4753 32.8377 23.5778 32.8151 23.6766C32.7924 23.7755 32.7493 23.8686 32.6886 23.9499C32.6278 24.0312 32.5507 24.099 32.4622 24.1489C32.3736 24.1988 32.2756 24.2298 32.1744 24.2398C32.0732 24.2498 31.971 24.2386 31.8744 24.207L31.864 24.2054L31.8571 24.2031L31.8497 24.2006C31.827 24.1956 31.8023 24.1907 31.7775 24.1857C31.7361 24.1775 31.6945 24.1691 31.6615 24.1605C31.4389 24.0893 31.2206 24.0053 31.0078 23.9089C30.5975 23.7439 30.172 23.6191 29.7375 23.5363C29.5871 23.5317 29.441 23.5858 29.3302 23.6873C29.2768 23.6764 29.1127 23.6478 29.0185 23.6329C28.3142 25.8426 26.8198 27.7171 24.8196 28.8997C24.8538 28.9999 24.8943 29.0978 24.941 29.1928C24.8667 29.3228 24.8466 29.4767 24.885 29.6213C25.0622 30.0257 25.2785 30.4119 25.5309 30.7743C25.6722 30.9596 25.8026 31.1529 25.9215 31.3532C25.9413 31.3906 25.9656 31.442 25.9879 31.489L26.0164 31.5487C26.0688 31.6361 26.1024 31.7335 26.1148 31.8345C26.1272 31.9356 26.1183 32.0381 26.0886 32.1355C26.0589 32.233 26.0091 32.3231 25.9424 32.4002C25.8757 32.4773 25.7935 32.5396 25.7012 32.5831C25.6089 32.6266 25.5085 32.6504 25.4064 32.6528C25.3043 32.6553 25.2028 32.6365 25.1085 32.5976C25.0141 32.5586 24.929 32.5004 24.8586 32.4267C24.7881 32.3529 24.734 32.2653 24.6995 32.1695L24.6754 32.1207C24.6521 32.0737 24.6268 32.0227 24.6094 31.9833C24.5262 31.7656 24.4556 31.5434 24.398 31.3176C24.2716 30.8953 24.1041 30.4863 23.8978 30.0965C23.8082 29.9757 23.6747 29.8947 23.5259 29.871C23.5143 29.8508 23.4863 29.8002 23.4555 29.7445C23.4257 29.6907 23.3933 29.6322 23.3706 29.5917C21.204 30.4098 18.8111 30.4038 16.6488 29.5747L16.4836 29.8724C16.3659 29.8907 16.2565 29.9439 16.1697 30.0252C15.9213 30.4316 15.7314 30.8709 15.6056 31.33C15.5486 31.5558 15.4784 31.778 15.3954 31.9957C15.38 32.0308 15.3577 32.0751 15.3364 32.1176C15.3254 32.1395 15.3147 32.1608 15.3053 32.1801V32.1819L15.3041 32.1832C15.2696 32.2791 15.2153 32.3666 15.1448 32.4402C15.0744 32.5139 14.9892 32.572 14.8948 32.6108C14.8004 32.6497 14.6989 32.6684 14.5969 32.6658C14.4948 32.6631 14.3944 32.6392 14.3022 32.5956C14.2099 32.552 14.1279 32.4895 14.0613 32.4124C13.9947 32.3352 13.945 32.245 13.9155 32.1475C13.886 32.0501 13.8772 31.9475 13.8899 31.8465C13.9025 31.7455 13.9362 31.6482 13.9888 31.561C13.999 31.5399 14.0104 31.5154 14.0222 31.49C14.0425 31.4461 14.064 31.3998 14.0823 31.3651C14.2012 31.1644 14.3316 30.9706 14.4729 30.7848C14.7299 30.4129 14.9506 30.0174 15.1322 29.6036C15.1515 29.4633 15.1288 29.3204 15.0671 29.1928L15.1999 28.8762C13.2061 27.703 11.7119 25.8429 10.999 23.6468L10.6814 23.701C10.5584 23.6138 10.4133 23.5627 10.2627 23.5535C9.82826 23.6364 9.40295 23.7612 8.99275 23.9261C8.77987 24.0216 8.56171 24.105 8.33932 24.1758C8.30581 24.1849 8.26312 24.1939 8.22105 24.2029C8.19682 24.208 8.1728 24.2131 8.15085 24.2181L8.1436 24.2204L8.13704 24.2224L8.12617 24.2242C8.02949 24.2558 7.92726 24.2671 7.82599 24.2571C7.72472 24.2471 7.62665 24.2162 7.53806 24.1662C7.44948 24.1163 7.37232 24.0485 7.31153 23.9671C7.25074 23.8857 7.20766 23.7926 7.18504 23.6937C7.16242 23.5948 7.16076 23.4922 7.18017 23.3926C7.19958 23.293 7.23962 23.1985 7.29775 23.1152C7.35588 23.032 7.4308 22.9617 7.51773 22.9089C7.60465 22.8562 7.70166 22.8221 7.80255 22.8089L7.81292 22.8058L7.81931 22.8044L7.83284 22.801C7.8914 22.7865 7.96196 22.7689 8.01382 22.7593C8.24549 22.7272 8.47882 22.7085 8.71265 22.7032C9.15383 22.6742 9.59111 22.6023 10.0183 22.4886C10.1448 22.4084 10.2518 22.3009 10.3314 22.1742L10.6364 22.0857C10.3053 19.7937 10.8346 17.4606 12.1225 15.5337L11.8894 15.3258C11.8807 15.1753 11.83 15.0302 11.7428 14.9069C11.4074 14.6193 11.0447 14.365 10.6597 14.1477C10.4517 14.0418 10.2501 13.9242 10.0558 13.7952C10.022 13.7707 9.97986 13.7359 9.9406 13.7035L9.90526 13.6744L9.89404 13.6665C9.72835 13.5478 9.61651 13.3686 9.58294 13.168C9.54938 12.9673 9.59681 12.7616 9.71489 12.5957C9.78462 12.5105 9.87351 12.4429 9.97436 12.3983C10.0752 12.3538 10.1852 12.3336 10.2953 12.3393C10.4807 12.3473 10.6586 12.4142 10.8031 12.5303L10.8546 12.5709C10.8935 12.6013 10.9347 12.6336 10.965 12.6594C11.1344 12.8193 11.2944 12.9888 11.4443 13.1671C11.742 13.4931 12.0709 13.7895 12.4263 14.0518C12.5595 14.1216 12.7147 14.1366 12.8588 14.0936C12.9458 14.1568 13.0336 14.2189 13.1222 14.2798C14.4021 12.9233 16.0594 11.9792 17.8813 11.5687C18.3149 11.4708 18.755 11.4033 19.1981 11.3668L19.2154 11.0595C19.3285 10.9593 19.4105 10.829 19.4519 10.684C19.4678 10.2433 19.4406 9.80218 19.3707 9.36678C19.3244 9.13855 19.2912 8.90785 19.2713 8.67583C19.27 8.63948 19.271 8.59345 19.272 8.54862L19.2731 8.48998L19.2722 8.4804C19.2718 8.47685 19.2713 8.47331 19.2713 8.46967C19.261 8.36814 19.2721 8.26558 19.304 8.16861C19.3359 8.07164 19.3878 7.98242 19.4564 7.90669C19.525 7.83096 19.6088 7.77042 19.7023 7.72896C19.7958 7.68751 19.897 7.66606 19.9994 7.66602C20.1017 7.66597 20.2029 7.68731 20.2965 7.72868C20.3901 7.77004 20.4739 7.83051 20.5426 7.90617C20.6112 7.98183 20.6632 8.07101 20.6952 8.16795C20.7272 8.26489 20.7384 8.36744 20.7282 8.46898C20.7282 8.49232 20.7287 8.51866 20.7291 8.54554C20.73 8.59136 20.7308 8.63877 20.7294 8.67565C20.7097 8.9075 20.6765 9.13803 20.6301 9.36608C20.5599 9.80155 20.5322 10.2428 20.5477 10.6836C20.5764 10.8309 20.6616 10.9612 20.7853 11.0467L20.7862 11.0646C20.7894 11.1316 20.7968 11.2834 20.8029 11.371C23.1056 11.5798 25.2541 12.6149 26.8492 14.284L27.1264 14.0866C27.2752 14.112 27.4283 14.0955 27.5682 14.0387C27.9236 13.7759 28.2525 13.4792 28.5502 13.1528C28.7007 12.9744 28.8614 12.8049 29.0316 12.6451C29.0647 12.6165 29.1109 12.5806 29.1529 12.5479L29.1932 12.5166C29.2663 12.4448 29.3537 12.3892 29.4498 12.3532C29.5459 12.3173 29.6485 12.302 29.7509 12.3081C29.8534 12.3143 29.9533 12.3419 30.0444 12.3891C30.1355 12.4363 30.2155 12.502 30.2795 12.5821C30.3434 12.6621 30.3897 12.7546 30.4155 12.8537C30.4412 12.9527 30.4458 13.0561 30.4289 13.157C30.412 13.2579 30.374 13.3542 30.3174 13.4395C30.2608 13.5249 30.1868 13.5974 30.1003 13.6524C30.0824 13.6666 30.0626 13.683 30.0423 13.6997C30.0067 13.7289 29.9699 13.7593 29.94 13.7815C29.7452 13.9104 29.5431 14.0279 29.3347 14.1336C28.9497 14.3509 28.5869 14.6051 28.2513 14.8925C28.1536 15.0065 28.1046 15.1541 28.1146 15.3038C28.0943 15.3225 28.0478 15.3639 27.997 15.4091C27.9474 15.4533 27.8938 15.5011 27.8566 15.5347C29.1482 17.4547 29.6881 19.7807 29.3737 22.0713L29.6678 22.1567C29.7412 22.2887 29.85 22.3978 29.9819 22.4719C30.4094 22.5853 30.847 22.6569 31.2884 22.6857ZM18.311 13.4287C18.5676 13.3711 18.827 13.3266 19.0882 13.2955L18.8716 17.1051L18.8557 17.1126C18.8508 17.2283 18.8145 17.3405 18.7508 17.4373C18.687 17.534 18.5981 17.6117 18.4935 17.6621C18.389 17.7124 18.2727 17.7336 18.157 17.7233C18.0413 17.7129 17.9307 17.6715 17.8367 17.6034L17.8307 17.6069L14.6975 15.3917C15.6949 14.4143 16.9465 13.7344 18.311 13.4287ZM22.1645 17.5945L25.2775 15.394C24.0928 14.2365 22.5594 13.4993 20.9134 13.2955L21.1296 17.0992L21.1331 17.1009C21.1384 17.2166 21.175 17.3287 21.2391 17.4252C21.3032 17.5218 21.3923 17.5992 21.4969 17.6493C21.6016 17.6994 21.718 17.7203 21.8336 17.7097C21.9492 17.6992 22.0598 17.6576 22.1536 17.5893L22.1645 17.5945ZM27.5155 21.5375L23.8303 20.4791L23.8269 20.4636C23.715 20.4328 23.6135 20.3723 23.5333 20.2887C23.4531 20.205 23.3971 20.1012 23.3713 19.9884C23.3454 19.8755 23.3507 19.7578 23.3866 19.6477C23.4224 19.5376 23.4875 19.4393 23.5749 19.3631L23.5735 19.3557L26.4182 16.8172C27.2893 18.2297 27.6747 19.8869 27.5155 21.5375ZM22.6086 23.5707L24.0804 27.1167C25.4887 26.2206 26.5573 24.8822 27.1172 23.3128L23.3241 22.6736L23.3177 22.6815C23.2692 22.6721 23.2196 22.6684 23.1702 22.6707C23.0847 22.6752 23.0011 22.6969 22.9242 22.7344C22.7752 22.8061 22.6596 22.9325 22.6017 23.0871C22.5437 23.2417 22.5478 23.4127 22.6131 23.5644L22.6086 23.5707ZM21.6916 28.1064C20.3285 28.4181 18.9052 28.3452 17.5813 27.8959L19.4303 24.5622H19.4334C19.4884 24.4603 19.57 24.3752 19.6695 24.3158C19.7691 24.2564 19.8829 24.225 19.9989 24.2249C20.1149 24.2248 20.2288 24.256 20.3285 24.3152C20.4282 24.3744 20.5099 24.4594 20.5651 24.5611H20.5789L22.4325 27.9004C22.1919 27.9805 21.9449 28.0489 21.6916 28.1064ZM15.9344 27.1026L17.3913 23.5924L17.3804 23.5783C17.422 23.4817 17.439 23.3763 17.43 23.2716C17.421 23.1668 17.3863 23.0659 17.3289 22.9777C17.2715 22.8895 17.1932 22.8167 17.101 22.7659C17.0087 22.715 16.9053 22.6876 16.7998 22.686C16.7576 22.6855 16.7153 22.6893 16.6738 22.6972L16.6674 22.6888L12.9078 23.3255C13.4722 24.8824 14.5361 26.2101 15.9344 27.1026ZM13.5613 16.8154L16.4218 19.3665L16.4187 19.382C16.5064 19.4581 16.5717 19.5564 16.6077 19.6666C16.6437 19.7768 16.6491 19.8947 16.6232 20.0076C16.5973 20.1206 16.5411 20.2245 16.4607 20.3081C16.3802 20.3917 16.2785 20.452 16.1664 20.4825L16.1635 20.4949L12.4967 21.5499C12.314 19.8977 12.6886 18.2317 13.5613 16.8154ZM20.5847 19.5634H19.4132L18.683 20.4698L18.9446 21.6027L19.9998 22.1086L21.052 21.6037L21.3131 20.4714L20.5847 19.5634Z" fill="white"/>
</svg>